<svg id="Layer_1" data-name="Layer 1" xmlns="http://www.w3.org/2000/svg" viewBox="0 0 428.89 471.01"><defs><style>.cls-1{fill:#ffdec0;}</style></defs><title>Final Logo</title><path class="cls-1" d="M300,209.5a21.48,21.48,0,0,0-4-42.58h-1.25c-10.42-35.92-41.49-62-78.21-62s-67.79,26.06-78.21,62H137a21.47,21.47,0,0,0-5.38,42.26c.27.07.54.15.82.21.47.1.95.17,1.43.25L125,256.55c19.43-18.61,49.52-38.87,69.49-46.66q2.55-1,4.86-1.7c-8.41-.1-16.83-.17-25.24-.37-9.68-.17-19.35-.44-29-.72l-7.25-.26c-1.14,0-2.26-.07-3.41-.13h-.22l-1.24-.13-.64-.07-.19,0-1.66-.36a16.05,16.05,0,0,1-10.69-9.55,15.89,15.89,0,0,0,11,8.21l1.62.21h.11l.74,0,1,0h.5l3.12-.1,20.58-.32c8.78-.11,103.74.12,130.3-.38h0a41.36,41.36,0,0,0,4.92-.39,42.41,42.41,0,0,0,5-1,26.55,26.55,0,0,0,4.66-1.63,18.39,18.39,0,0,0,8.77-9.8,15,15,0,0,0-1.68-13.06,18.77,18.77,0,0,0-4.93-5,24.47,24.47,0,0,0-6.38-3.3,22.22,22.22,0,0,1,12.44,7.47,15.86,15.86,0,0,1,3.14,6.89c.13.63.15,1.27.23,1.9,0,.32.07.64.09,1v1a16.83,16.83,0,0,1-.56,3.85,18.26,18.26,0,0,1-3.64,6.86,24.12,24.12,0,0,1-11.43,7.61c-.51.16-1,.32-1.55.45a26,26,0,0,1-3.42.61l-.25,0c-.65.06-1.46.12-2.11.14l-1.83,0-.8,0c-9.41.22-18.82.26-28.23.4l-29,.13-14.32-.07q2.29.67,4.81,1.58c19.12,6.91,43.83,24.61,71.19,42.31L286,210.76l8.87-.86,39.52,208.48a25.74,25.74,0,0,1-9,25.15c-11.82,10-53.95,19.86-111.81,19.86-64.67,0-96.14-13.49-110.55-25.8a17.46,17.46,0,0,1-4.7-7.13,19.42,19.42,0,0,0,3.73,3.82c6.19,4.84,26.78,15.29,63.45,20.87C141,442.75,116,415.81,99,394.5c0,0-1.59,8-1.78,9S93.13,424,93.13,424a23.85,23.85,0,0,0,.44,11.26C96,455.12,150.19,471,216.65,471c59.47,0,109.09-12.72,120.64-29.65,3.35-3.09,4.86-9.43,3.5-16.61Zm-62.69-99.95c4.58,1.2,15.9,6.2,26.12,14.16,6.53,5.09,11.75,11.63,16.31,18.46q3.41,5.14,6.29,10.59A104.4,104.4,0,0,1,291.18,164a1.43,1.43,0,0,1-1.34,1.95h0q-17.69-.13-35.38-.35c-11.79-.12-23.59-.35-35.38-.55q-12.39-.26-24.78-.55c-3.53-.09-7.07-.17-10.6-.26-5.9-.14-13.29.13-19.18,0s-11.51.23-14.84-1.35c4.08-1.8,5-2.11,10.87-2.17s11.79-.17,17.69-.19c11.79-.09,98.31,2.79,101.62-.1,2.58-2.26.59-4.67-.79-7.4q-1.71-3.35-3.63-6.58c-.77-1.3-1.55-2.59-2.37-3.86-1.29-2-6.06-8.43-7.11-9.69a69.4,69.4,0,0,0-8.38-8.55,57.09,57.09,0,0,0-4.74-3.64c-1.64-1.11-3.37-2.16-5.11-3.19a91.84,91.84,0,0,0-9.58-5c-7.35-3.28-11.06-3.5-19.47-4.73C223,106.66,231.4,108,237.29,109.55Zm19.35,33.21c-1.93,1.47-6.7-1.57-10.67-6.77s-5.61-10.62-3.68-12.09,6.7,1.57,10.67,6.77S258.57,141.29,256.64,142.76Zm-41.73-21.28c2.42,0,4.39,5.3,4.39,11.85s-2,11.85-4.39,11.85-4.39-5.3-4.39-11.85S212.49,121.48,214.91,121.48Zm-33.46,13.86c-5.21,4-10.62,5.61-12.09,3.68s1.57-6.7,6.77-10.67,10.62-5.61,12.09-3.68S186.66,131.38,181.45,135.34Z" transform="translate(0)"/><path class="cls-1" d="M203.83,458.6c1.36,0,2.72.1,4.1.13,55.64,1.32,101.61-12,113.44-23.31,4.75-4.53,4.55-14.15,3.27-20.86l-3.27-17.27C292.1,419.7,240.17,449,204.81,458.61Z" transform="translate(0)"/><path class="cls-1" d="M295.66,261.66c-52.77-19.75-93.33-15.78-106.6-.46-13.91,16,71.09,48.22,121.33,78.14Z" transform="translate(0)"/><path class="cls-1" d="M102.4,376.06c20.74,19.27,58.2,43.73,86.65,45.23,40.49,2.13,92.36-37,88.86-59.5C274.84,342,154.09,323.68,116.4,302.17,111.23,329.46,106.08,356.7,102.4,376.06Z" transform="translate(0)"/><path class="cls-1" d="M418.55,141,250.84,11.59c-20-15.45-52.77-15.45-72.79,0L10.34,141c-22.58,17.43-5.74,46.21,27,46.21H73.92c12.4,0,23.08-6.46,25.37-15.41,14.17-55.39,60.36-96,115.16-96s101,40.6,115.16,96c2.29,8.94,13,15.41,25.37,15.41h36.54C424.29,187.22,441.13,158.44,418.55,141Zm-7.49,36c8.33-8.5,3-17.13-.19-20.63-4.38-4.84-9.69-8.81-14.69-13C362.81,115.54,328,89.44,293.32,63.24q-21.94-16.59-44-33c-3.68-2.73-7.34-5.49-11.06-8.16-9.72-7-15.24-10.8-35.19-14.59-1.88-.36,4.63-1.83,5.5-1.89,12.52-.9,25.87,3.19,36,10.43,4.58,3.27,9.08,6.68,13.59,10q53,39.42,105.16,79.94c15.25,11.89,30.55,23.79,45.2,36.41,3.57,3.08,7.71,6.2,10.62,10C425.26,160.27,422.81,170.47,411.06,177Z" transform="translate(0)"/></svg>
