<?xml version="1.0" encoding="utf-8"?>
<!-- Generator: Adobe Illustrator 12.0.0, SVG Export Plug-In . SVG Version: 6.00 Build 51448)  -->
<!DOCTYPE svg PUBLIC "-//W3C//DTD SVG 1.1//EN" "http://www.w3.org/Graphics/SVG/1.1/DTD/svg11.dtd" [
	<!ENTITY ns_svg "http://www.w3.org/2000/svg">
	<!ENTITY ns_xlink "http://www.w3.org/1999/xlink">
]>
<svg  version="1.1" id="レイヤー_1" xmlns="&ns_svg;" xmlns:xlink="&ns_xlink;" width="39.621" height="28.148"
	 viewBox="0 0 39.621 28.148" overflow="visible" enable-background="new 0 0 39.621 28.148" xml:space="preserve">
<g id="XMLID_100_">
	<path id="XMLID_911_" fill="#F9C587" d="M19.778,0.454c-17.293,0-15.11,10.991-15.11,10.991h15.11h15.11
		C34.888,11.446,37.071,0.454,19.778,0.454z"/>
</g>
<g id="XMLID_98_">
	<path id="XMLID_828_" fill="#5F3811" d="M34.888,11.899H4.668c-0.319,0-0.588-0.167-0.633-0.391
		C3.996,11.314,3.137,6.71,7.25,3.347C9.966,1.126,14.181,0,19.778,0s9.812,1.126,12.528,3.347c4.113,3.363,3.254,7.968,3.215,8.162
		C35.476,11.733,35.207,11.899,34.888,11.899z M5.251,10.993h29.053c0.102-1.142,0.107-4.545-2.971-7.057
		c-2.463-2.009-6.352-3.027-11.556-3.027c-5.21,0-9.1,1.021-11.563,3.034C5.137,6.461,5.147,9.853,5.251,10.993z"/>
</g>
<g id="XMLID_97_">
	<path id="XMLID_909_" fill="#B55959" d="M38.917,18.536c0,1.584-1.804,2.867-4.028,2.867H4.669c-2.225,0-4.029-1.283-4.029-2.867
		v-0.041c0-1.583,1.804-2.867,4.029-2.867h30.22c2.226,0,4.028,1.284,4.028,2.867V18.536L38.917,18.536z"/>
</g>
<g id="XMLID_95_">
	<path id="XMLID_825_" fill="#5F3811" d="M34.888,21.857H4.668C2.094,21.857,0,20.368,0,18.536v-0.041
		c0-1.831,2.094-3.321,4.668-3.321h30.22c2.574,0,4.669,1.49,4.669,3.321v0.041C39.557,20.368,37.462,21.857,34.888,21.857z
		 M4.668,16.082c-1.87,0-3.391,1.083-3.391,2.414v0.041c0,1.33,1.521,2.413,3.391,2.413h30.22c1.869,0,3.391-1.083,3.391-2.413
		v-0.041c0-1.331-1.521-2.414-3.391-2.414H4.668z"/>
</g>
<g id="XMLID_94_">
	<path id="XMLID_907_" fill="#F9C587" d="M34.888,21.403h-15.11H4.668c0,0-0.168,6.291,15.11,6.291
		C35.056,27.694,34.888,21.403,34.888,21.403z"/>
</g>
<g id="XMLID_92_">
	<path id="XMLID_822_" fill="#5F3811" d="M19.778,28.148c-6.133,0-10.606-0.986-13.294-2.935c-2.479-1.795-2.457-3.737-2.455-3.819
		c0.007-0.247,0.291-0.444,0.639-0.444h30.22c0.349,0,0.633,0.196,0.639,0.444c0.003,0.082,0.025,2.024-2.454,3.819
		C30.384,27.162,25.912,28.148,19.778,28.148z M5.368,21.857c0.138,0.594,0.588,1.688,2.056,2.741
		c2.444,1.753,6.601,2.642,12.355,2.642c5.777,0,9.943-0.896,12.383-2.661c1.439-1.043,1.887-2.132,2.025-2.723L5.368,21.857
		L5.368,21.857z"/>
</g>
<g id="XMLID_91_">
	<path id="XMLID_905_" fill="#FAF393" d="M34.636,13.716H4.92c-0.741,0-1.343,0.428-1.343,0.956s0.601,0.956,1.343,0.956
		l5.569,4.103l4.98-4.103h19.167c0.742,0,1.344-0.428,1.344-0.956S35.378,13.716,34.636,13.716z"/>
</g>
<g id="XMLID_90_">
	<path id="XMLID_819_" fill="#5F3811" d="M10.489,20.184c-0.173,0-0.339-0.051-0.46-0.14l-5.401-3.979
		c-0.955-0.101-1.69-0.688-1.69-1.395c0-0.777,0.889-1.409,1.982-1.409h29.716c1.094,0,1.982,0.632,1.982,1.409
		s-0.89,1.41-1.982,1.41H15.761l-4.789,3.944c-0.117,0.097-0.287,0.153-0.466,0.157C10.501,20.184,10.495,20.184,10.489,20.184z
		 M4.92,14.17c-0.388,0-0.704,0.226-0.704,0.501c0,0.276,0.315,0.502,0.704,0.502c0.174,0,0.34,0.051,0.46,0.14l5.083,3.743
		l4.522-3.725c0.122-0.102,0.298-0.158,0.484-0.158h19.167c0.389,0,0.703-0.226,0.703-0.502s-0.314-0.501-0.703-0.501H4.92
		L4.92,14.17z"/>
</g>
<g id="XMLID_89_">
	<path id="XMLID_904_" fill="#8FDB9B" d="M4.668,11.446c0,0-2.687,0.519-2.91,1.752c-0.224,1.235,2.519,1.713,5.876,1.115
		c3.357-0.598,4.309,0.592,7.778,0.256c3.47-0.336,5.457-0.368,7.261,0.062s3.986,0.34,5.121-0.287
		c1.133-0.627,4.195-0.09,5.834,0.12c1.637,0.208,4.699,0.538,5.287-0.986c0.588-1.523-2.938-2.031-4.028-2.031
		S4.668,11.446,4.668,11.446z"/>
</g>
<g id="XMLID_87_">
	<path id="XMLID_816_" fill="#5F3811" d="M24.988,15.353c-0.824,0-1.691-0.096-2.517-0.292c-1.601-0.381-3.358-0.392-6.972-0.042
		c-1.75,0.17-2.931-0.026-3.971-0.202c-1.133-0.188-2.111-0.352-3.738-0.063c-2.609,0.465-4.91,0.324-6.003-0.367
		c-0.514-0.325-0.75-0.768-0.663-1.247c0.275-1.518,3.25-2.108,3.376-2.133c0.055-0.01,0.111-0.017,0.167-0.017h30.22
		c0.93,0,3.298,0.308,4.278,1.221c0.434,0.403,0.562,0.883,0.367,1.385c-0.766,1.983-4.582,1.496-6.019,1.313
		c-0.211-0.027-0.446-0.061-0.697-0.096c-1.354-0.187-3.871-0.534-4.631-0.112C27.416,15.13,26.25,15.353,24.988,15.353z
		 M19.59,13.857c1.216,0,2.271,0.102,3.287,0.344c1.648,0.392,3.595,0.3,4.524-0.216c1.22-0.675,3.786-0.319,5.66-0.061
		c0.245,0.034,0.476,0.064,0.681,0.091c1.91,0.244,4.153,0.39,4.559-0.659c0.09-0.23,0.043-0.414-0.15-0.594
		c-0.607-0.566-2.445-0.863-3.262-0.863H4.758c-0.682,0.146-2.234,0.625-2.366,1.356c-0.033,0.185,0.042,0.324,0.244,0.452
		c0.611,0.386,2.386,0.602,4.843,0.165c1.928-0.344,3.155-0.139,4.341,0.061c1.023,0.171,1.99,0.333,3.506,0.187
		C16.992,13.959,18.372,13.857,19.59,13.857z"/>
</g>
<g id="XMLID_85_">
	<g id="XMLID_86_">
		<path id="XMLID_902_" fill="#FBDFBB" d="M13.753,3.415l-0.374-0.666c0.23-0.065,0.454-0.113,0.671-0.16
			c0.206-0.044,0.398-0.085,0.588-0.139l0.374,0.665c-0.231,0.066-0.455,0.114-0.672,0.16C14.136,3.32,13.942,3.361,13.753,3.415z"
			/>
	</g>
</g>
<g id="XMLID_83_">
	<g id="XMLID_84_">
		<path id="XMLID_901_" fill="#FBDFBB" d="M10.649,6.383L9.937,5.876c0.155-0.111,0.322-0.195,0.483-0.277
			c0.134-0.068,0.26-0.132,0.356-0.201l0.712,0.507c-0.155,0.111-0.322,0.195-0.482,0.277C10.872,6.25,10.745,6.313,10.649,6.383z"
			/>
	</g>
</g>
<g id="XMLID_79_">
	<g id="XMLID_80_">
		<path id="XMLID_899_" fill="#FBDFBB" d="M19.956,5.501l-0.1-0.713c0.263-0.02,0.526-0.043,0.792-0.068
			c0.589-0.055,1.199-0.112,1.859-0.112v0.718c-0.594,0-1.172,0.054-1.729,0.105C20.501,5.456,20.229,5.481,19.956,5.501z"/>
	</g>
</g>
<g id="XMLID_77_">
	<g id="XMLID_78_">
		<polygon id="XMLID_898_" fill="#FBDFBB" points="23.278,3.463 22.828,2.821 23.833,2.464 24.285,3.104 		"/>
	</g>
</g>
<g id="XMLID_75_">
	<g id="XMLID_76_">
		<path id="XMLID_897_" fill="#FBDFBB" d="M15.344,6.959l-0.197-0.703c0.334-0.048,0.545-0.132,0.703-0.282l0.806,0.43
			C16.348,6.695,15.919,6.877,15.344,6.959z"/>
	</g>
</g>
<g id="XMLID_71_">
	<g id="XMLID_72_">
		<path id="XMLID_895_" fill="#FBDFBB" d="M27.353,5.894l-0.712-0.507c0.155-0.111,0.254-0.184,0.299-0.278l0.955,0.228
			C27.773,5.595,27.542,5.761,27.353,5.894z"/>
	</g>
</g>
<g id="XMLID_67_">
	<g id="XMLID_68_">
		<path id="XMLID_893_" fill="#FBDFBB" d="M20.113,2.916c0,0,0.016-0.011,0.031-0.032l-0.901-0.32
			c0.147-0.21,0.444-0.306,0.641-0.37c0.031-0.01,0.061-0.02,0.088-0.028l0.451,0.641c-0.037,0.014-0.079,0.026-0.122,0.041
			C20.243,2.865,20.143,2.898,20.113,2.916z"/>
	</g>
</g>
</svg>
