<?xml version="1.0" encoding="utf-8"?>
<!-- Generator: Adobe Illustrator 12.0.0, SVG Export Plug-In . SVG Version: 6.00 Build 51448)  -->
<!DOCTYPE svg PUBLIC "-//W3C//DTD SVG 1.1//EN" "http://www.w3.org/Graphics/SVG/1.1/DTD/svg11.dtd" [
	<!ENTITY ns_svg "http://www.w3.org/2000/svg">
	<!ENTITY ns_xlink "http://www.w3.org/1999/xlink">
]>
<svg  version="1.1" id="レイヤー_1" xmlns="&ns_svg;" xmlns:xlink="&ns_xlink;" width="30.522" height="40.419"
	 viewBox="0 0 30.522 40.419" overflow="visible" enable-background="new 0 0 30.522 40.419" xml:space="preserve">
<path fill="#FAF393" d="M29.115,29.596c0.651-6.762,1.271-17.407-13.558-26.527c0,0-4.577-2.364-7.278,0.678
	c-2.7,3.042-0.384,5.868,0.702,6.886c1.085,1.017,7.55,5.665,9.353,13.758c1.007,4.523-1.711,11.172,2.873,14.21
	C21.208,38.601,27.836,42.875,29.115,29.596"/>
<g id="XMLID_2_">
	<g>
		<path fill="#6B431F" d="M29.29,17.775c1.14,3.831,1.13,7.77,0.76,11.71c0-1.07-1.74-1.021-1.86,0.109
			c0.53-5.449,0.28-10.89-2.609-15.72c-2.181-3.64-5.33-6.61-8.84-8.95c-2.17-1.45-5.71-3.08-7.81-0.53
			c-1.85,2.25-0.63,4.47,1.29,6.09c1.51,1.28,2.97,2.65,4.22,4.19c1.82,2.25,3.35,4.75,4.24,7.52c0.92,2.85,0.79,5.529,0.7,8.479
			c-0.08,2.471-0.09,5.67,2.31,7.141c0.431,0.26,0.82,0.43,1.36,0.489c4.12,0.44,4.86-5.909,5.14-8.71
			c-0.109,1.181,1.74,1.17,1.851,0c-0.351,3.391-1,8.521-4.57,10.16c-1.48,0.67-3.27,0.5-4.66-0.319
			c-4.03-2.36-3.25-7.61-3.16-11.511c0.11-5.14-2.38-9.85-5.89-13.49c-2.47-2.57-7.23-5.38-5.24-9.66c1.23-2.64,3.83-3.85,6.66-3.4
			c2.33,0.38,4.13,1.62,6,3.03C23.729,7.826,27.64,12.215,29.29,17.775z"/>
		<path fill="#6B431F" d="M30.05,29.486c0,0.04-0.01,0.069-0.01,0.109c-0.11,1.17-1.96,1.181-1.851,0
			C28.31,28.465,30.05,28.416,30.05,29.486z"/>
	</g>
	<g>
	</g>
</g>
<g id="XMLID_1_">
	<g>
		<path fill="#6B431F" d="M7.96,2.186c1.17,0.43,1.64,1.46,1.04,2.3c-0.59,0.85-2.02,1.18-3.2,0.76l-4.85-1.78
			c-1.17-0.43-0.65-1.29-0.05-2.13c0.59-0.85,1.04-1.36,2.21-0.93L7.96,2.186z"/>
	</g>
	<g>
	</g>
</g>
<path fill="#6B431F" d="M8.849,5.756C8.745,5.714,8.63,5.661,8.864,5.766c0.199,0.089,0.396,0.186,0.59,0.283
	c0.733,0.368,1.442,0.784,2.133,1.226c2.292,1.465,4.328,3.308,6.065,5.399c6.136,7.387,6.559,17.312,4.237,26.268
	c-0.299,1.152,1.479,1.641,1.777,0.49c2.463-9.504,1.87-19.593-4.305-27.554c-2.557-3.296-6.123-6.311-10.026-7.899
	C8.237,3.53,7.763,5.314,8.849,5.756"/>
<path fill="#6B431F" d="M23.33,36.45c1.086-0.084,2.013,0.438,2.067,1.169c0.056,0.731-0.78,1.394-1.866,1.478
	c-1.087,0.086-2.012-0.438-2.067-1.168C21.408,37.196,22.243,36.536,23.33,36.45"/>
</svg>
