<?xml version="1.0" encoding="utf-8"?>
<!-- Generator: Adobe Illustrator 12.0.0, SVG Export Plug-In . SVG Version: 6.00 Build 51448)  -->
<!DOCTYPE svg PUBLIC "-//W3C//DTD SVG 1.1//EN" "http://www.w3.org/Graphics/SVG/1.1/DTD/svg11.dtd" [
	<!ENTITY ns_svg "http://www.w3.org/2000/svg">
	<!ENTITY ns_xlink "http://www.w3.org/1999/xlink">
]>
<svg  version="1.1" id="レイヤー_1" xmlns="&ns_svg;" xmlns:xlink="&ns_xlink;" width="39.742" height="26.063"
	 viewBox="0 0 39.742 26.063" overflow="visible" enable-background="new 0 0 39.742 26.063" xml:space="preserve">
<path fill="#FFFFFF" d="M28.793,9.809C20.146,9.93,19.874-2.857,8.136,1.751C-3.559,6.343,0.377,20.722,7.951,24.306
	c2.588,1.756,19.563,0.799,23.788-0.127C42.418,21.837,41.196,9.636,28.793,9.809"/>
<path fill="#5F3811" d="M16.457,26.063L16.457,26.063c-7.022,0-8.424-0.788-8.879-1.092c-4.504-2.164-7.755-7.879-7.571-13.315
	c0.167-4.911,2.956-8.677,7.854-10.6C9.668,0.347,11.278,0,12.783,0c3.999,0,6.313,2.434,8.551,4.789
	c2.089,2.197,4.063,4.271,7.336,4.271l0.111-0.001c7-0.098,10.528,3.562,10.922,7.188c0.367,3.381-1.904,7.385-7.806,8.68
	C29.473,25.457,22.536,26.063,16.457,26.063 M12.784,1.5c-1.314,0-2.746,0.311-4.374,0.95C4.104,4.14,1.653,7.426,1.508,11.7
	C1.342,16.597,4.25,21.722,8.273,23.626l0.101,0.059c0.294,0.199,1.748,0.852,8.084,0.852c5.981,0,12.77-0.574,15.123-1.09
	c4.99-1.096,6.928-4.323,6.634-7.038c-0.32-2.953-3.358-5.935-9.407-5.848l-0.133,0.001c-3.919,0-6.209-2.409-8.424-4.738
	C18.135,3.599,16.139,1.5,12.784,1.5"/>
<path fill="#FAF393" d="M20.025,14.819c0,2.669-2.164,4.833-4.833,4.833c-2.669,0-4.833-2.164-4.833-4.833
	c0-2.67,2.164-4.833,4.833-4.833C17.861,9.985,20.025,12.149,20.025,14.819"/>
<path fill="#5F3811" d="M15.191,20.403c-3.079,0-5.584-2.506-5.584-5.584c0-3.08,2.505-5.584,5.584-5.584
	c3.079,0,5.584,2.505,5.584,5.584C20.776,17.897,18.27,20.403,15.191,20.403 M15.191,10.736c-2.251,0-4.083,1.832-4.083,4.083
	s1.832,4.082,4.083,4.082c2.251,0,4.083-1.831,4.083-4.082C19.274,12.567,17.442,10.736,15.191,10.736"/>
</svg>
