<?xml version="1.0" encoding="utf-8"?>
<!-- Generator: Adobe Illustrator 12.0.0, SVG Export Plug-In . SVG Version: 6.00 Build 51448)  -->
<!DOCTYPE svg PUBLIC "-//W3C//DTD SVG 1.1//EN" "http://www.w3.org/Graphics/SVG/1.1/DTD/svg11.dtd" [
	<!ENTITY ns_svg "http://www.w3.org/2000/svg">
	<!ENTITY ns_xlink "http://www.w3.org/1999/xlink">
]>
<svg  version="1.1" id="レイヤー_1" xmlns="&ns_svg;" xmlns:xlink="&ns_xlink;" width="223.339" height="202.955"
	 viewBox="0 0 223.339 202.955" overflow="visible" enable-background="new 0 0 223.339 202.955" xml:space="preserve">
<path fill="#7BAD74" d="M214.308,35.614c-9.146-17.763-25.219-30.986-45.07-34.591c-11.154-2.026-22.924-1.08-33.465,3.172
	c-10.232,4.126-17.533,11.121-24.104,19.636c-6.57-8.515-13.871-15.51-24.104-19.636C77.024-0.057,65.254-1.003,54.101,1.023
	C34.249,4.628,18.179,17.851,9.032,35.614c-21.644,42.027-1.558,89.734,30.33,120.139c20.774,19.807,46.044,33.838,71.466,46.732
	c0.007,0.004,0.015,0.006,0.022,0.01c-0.011-0.006,0.82,0.461,0.82,0.461s0.83-0.467,0.819-0.461
	c0.009-0.004,0.015-0.006,0.022-0.01c25.422-12.896,50.691-26.926,71.467-46.732C215.867,125.349,235.953,77.641,214.308,35.614"/>
</svg>
