<?xml version="1.0" encoding="utf-8"?>
<!-- Generator: Adobe Illustrator 12.0.0, SVG Export Plug-In . SVG Version: 6.00 Build 51448)  -->
<!DOCTYPE svg PUBLIC "-//W3C//DTD SVG 1.1//EN" "http://www.w3.org/Graphics/SVG/1.1/DTD/svg11.dtd" [
	<!ENTITY ns_svg "http://www.w3.org/2000/svg">
	<!ENTITY ns_xlink "http://www.w3.org/1999/xlink">
]>
<svg  version="1.1" id="レイヤー_1" xmlns="&ns_svg;" xmlns:xlink="&ns_xlink;" width="39.884" height="33.134"
	 viewBox="0 0 39.884 33.134" overflow="visible" enable-background="new 0 0 39.884 33.134" xml:space="preserve">
<path fill="#5F3811" d="M39.726,29.591c-0.349-0.897-1.221-1.69-2.809-2.516c0.784-0.264,1.479-0.654,1.763-1.233
	c0.261-0.533,0.277-1.093,0.048-1.617c-0.72-1.648-3.705-2.661-7.845-3.912c-0.423-0.127-0.838-0.253-1.234-0.376
	c-2.113-0.655-3.521-2.038-4.184-4.111c-0.01-0.471-0.003-0.952,0.02-1.431c0.121-2.474-0.299-4.655-1.214-6.313
	c-0.501-1.015-1.212-1.796-2.079-2.294c0.31-0.945,0.649-1.733,0.9-2.263c0.413-0.871,0.096-2.607-0.736-3.097l-0.289-0.17
	C21.783,0.089,21.458,0,21.127,0c-0.709,0-1.366,1.122-1.671,1.763c-0.417,0.872-0.989,2.225-1.427,3.851
	c-1.005,0.475-1.85,1.332-2.407,2.449c-0.921,1.66-1.344,3.849-1.224,6.331c0.023,0.479,0.03,0.959,0.021,1.431
	c-0.663,2.073-2.069,3.456-4.185,4.111C9.838,20.059,9.423,20.185,9,20.312c-4.14,1.251-7.125,2.264-7.844,3.912
	c-0.229,0.524-0.214,1.085,0.047,1.617c0.282,0.579,0.979,0.971,1.763,1.233c-1.588,0.824-2.459,1.617-2.809,2.515
	c-0.237,0.611-0.206,1.262,0.09,1.882c0.719,1.501,3.559,1.663,4.747,1.663c2.859,0,6.009-0.776,8.639-2.131
	c2.811-1.446,4.964-3.508,6.308-6.016c1.345,2.508,3.497,4.567,6.309,6.015c2.631,1.354,5.778,2.132,8.64,2.132
	c1.188,0,4.027-0.162,4.746-1.663C39.932,30.851,39.964,30.201,39.726,29.591z"/>
<g id="XMLID_256_">
	<g>
		<path fill="#EFE086" d="M37.796,24.629c0.109,0.252,0.1,0.501-0.029,0.767c-0.224,0.458-1.412,0.93-3.194,1.133
			c-0.998-0.399-2.057-0.774-3.07-1.135c-0.449-0.159-0.889-0.316-1.313-0.47c-2.115-0.771-4.517-2.688-5.07-7.354
			c0.895,1.604,2.32,2.747,4.229,3.339c0.401,0.123,0.817,0.249,1.242,0.379C33.54,22.177,37.21,23.285,37.796,24.629z"/>
		<path fill="#EFE086" d="M10.536,20.907c1.91-0.592,3.336-1.734,4.231-3.339c-0.554,4.667-2.957,6.584-5.07,7.354
			c-0.424,0.153-0.863,0.312-1.314,0.471c-1.015,0.359-2.07,0.734-3.07,1.135c-1.781-0.203-2.972-0.675-3.195-1.133
			c-0.129-0.266-0.14-0.515-0.029-0.767c0.587-1.344,4.258-2.451,7.207-3.343C9.72,21.156,10.136,21.03,10.536,20.907z"/>
	</g>
</g>
<g id="XMLID_255_">
	<g>
		<path fill="#FAF393" d="M38.766,29.93c0.149,0.36,0.135,0.722-0.048,1.103c-0.259,0.539-1.542,1.085-3.828,1.085h-0.002
			c-3.889,0-11.966-1.882-14.688-9.005l-0.26-0.677l-0.259,0.677c-2.723,7.123-10.798,9.005-14.688,9.005
			c-2.286,0-3.571-0.546-3.83-1.085c-0.182-0.381-0.198-0.741-0.048-1.103c0.664-1.605,4.426-2.942,7.451-4.015
			c0.451-0.161,0.894-0.317,1.318-0.472c2.719-0.991,5.887-3.721,5.526-11.101c-0.19-3.938,1.118-7.044,3.334-7.915l0.133-0.053
			l0.035-0.139c0.427-1.711,1.026-3.142,1.457-4.039c0.14-0.292,0.428-0.475,0.754-0.475c0.148,0,0.295,0.041,0.425,0.116
			l0.288,0.171c0.377,0.222,0.521,0.686,0.335,1.077c-0.32,0.674-0.778,1.747-1.148,3.029l-0.067,0.238l0.229,0.094
			c2.186,0.898,3.474,3.996,3.282,7.894c-0.36,7.38,2.808,10.108,5.528,11.101c0.426,0.153,0.867,0.311,1.317,0.472
			C34.34,26.987,38.104,28.324,38.766,29.93z"/>
	</g>
</g>
</svg>
