<?xml version="1.0" encoding="utf-8"?>
<!-- Generator: Adobe Illustrator 12.0.0, SVG Export Plug-In . SVG Version: 6.00 Build 51448)  -->
<!DOCTYPE svg PUBLIC "-//W3C//DTD SVG 1.1//EN" "http://www.w3.org/Graphics/SVG/1.1/DTD/svg11.dtd" [
	<!ENTITY ns_svg "http://www.w3.org/2000/svg">
	<!ENTITY ns_xlink "http://www.w3.org/1999/xlink">
]>
<svg  version="1.1" id="レイヤー_1" xmlns="&ns_svg;" xmlns:xlink="&ns_xlink;" width="39.867" height="32.965"
	 viewBox="0 0 39.867 32.965" overflow="visible" enable-background="new 0 0 39.867 32.965" xml:space="preserve">
<path fill="#FFDFB3" d="M39.19,23.271c0,4.345-7.104,7.479-15.864,7.479c-8.762,0-15.864-3.136-15.864-7.479
	s7.103-7.868,15.864-7.868C32.087,15.403,39.19,18.926,39.19,23.271"/>
<path fill="#5F3811" d="M38.514,23.271c-0.084,3.904-5.59,5.49-8.601,6.15c-5.154,1.131-10.921,0.931-15.932-0.758
	c-2.797-0.94-7.231-3.44-5.426-7.038c0.817-1.63,2.541-2.677,4.123-3.444c2.258-1.099,4.807-1.646,7.287-1.924
	c4.241-0.478,8.683-0.095,12.704,1.375C35.075,18.509,38.45,20.319,38.514,23.271c0.019,0.872,1.373,0.874,1.354,0
	c-0.078-3.67-3.82-5.798-6.837-6.946c-4.839-1.842-10.405-1.985-15.454-1.077c-3.664,0.66-8.277,2.201-10.189,5.694
	c-1.691,3.092,0.479,6.019,3.104,7.614c2.446,1.486,5.389,2.194,8.196,2.563c3.454,0.455,6.952,0.396,10.389-0.166
	c3.979-0.648,10.685-2.646,10.792-7.685C39.887,22.397,38.532,22.399,38.514,23.271"/>
<path fill="#F4C392" d="M39.19,19.595c0,4.345-7.104,7.479-15.864,7.479c-8.762,0-15.864-3.136-15.864-7.479
	c0-4.346,7.103-7.868,15.864-7.868C32.087,11.727,39.19,15.25,39.19,19.595"/>
<path fill="#5F3811" d="M38.514,19.595c-0.084,3.903-5.59,5.489-8.601,6.148c-5.154,1.131-10.921,0.932-15.932-0.757
	c-2.797-0.94-7.231-3.439-5.426-7.037c0.817-1.63,2.541-2.677,4.123-3.445c2.258-1.098,4.807-1.646,7.287-1.925
	c4.241-0.477,8.683-0.094,12.704,1.374C35.075,14.833,38.45,16.643,38.514,19.595c0.019,0.872,1.373,0.873,1.354,0
	c-0.078-3.669-3.82-5.798-6.837-6.946c-4.839-1.842-10.405-1.986-15.454-1.077c-3.664,0.66-8.277,2.201-10.189,5.694
	c-1.691,3.092,0.479,6.018,3.104,7.614c2.446,1.486,5.389,2.193,8.196,2.563c3.454,0.454,6.952,0.396,10.389-0.166
	c3.979-0.648,10.685-2.647,10.792-7.685C39.887,18.721,38.532,18.723,38.514,19.595"/>
<path fill="#FFDFB3" d="M39.19,16.112c0,4.345-7.104,7.481-15.864,7.481c-8.762,0-15.864-3.137-15.864-7.481
	s7.103-7.868,15.864-7.868C32.087,8.244,39.19,11.767,39.19,16.112"/>
<path fill="#5F3811" d="M38.514,16.112c-0.084,3.905-5.59,5.491-8.601,6.151c-5.154,1.13-10.921,0.931-15.932-0.758
	c-2.797-0.941-7.231-3.44-5.426-7.037c0.817-1.63,2.541-2.678,4.123-3.445c2.258-1.098,4.807-1.646,7.287-1.924
	c4.241-0.478,8.683-0.094,12.704,1.374C35.075,11.35,38.45,13.16,38.514,16.112c0.019,0.873,1.373,0.874,1.354,0
	c-0.078-3.669-3.82-5.797-6.837-6.945C28.191,7.325,22.625,7.181,17.576,8.09c-3.664,0.659-8.277,2.2-10.189,5.693
	c-1.691,3.092,0.479,6.019,3.104,7.614c2.446,1.487,5.389,2.194,8.196,2.563c3.454,0.455,6.952,0.396,10.389-0.165
	c3.979-0.649,10.685-2.648,10.792-7.686C39.887,15.238,38.532,15.24,38.514,16.112"/>
<path fill="#F4C392" d="M39.19,12.436c0,4.345-7.104,7.48-15.864,7.48c-8.762,0-15.864-3.136-15.864-7.48s7.103-7.868,15.864-7.868
	C32.087,4.568,39.19,8.091,39.19,12.436"/>
<path fill="#5F3811" d="M38.514,12.436c-0.084,3.905-5.59,5.491-8.601,6.149c-5.154,1.132-10.921,0.932-15.932-0.757
	c-2.797-0.94-7.231-3.44-5.426-7.038c0.817-1.63,2.541-2.676,4.123-3.444c2.258-1.098,4.807-1.646,7.287-1.924
	c4.241-0.478,8.683-0.095,12.704,1.375C35.075,7.674,38.45,9.484,38.514,12.436c0.019,0.872,1.373,0.874,1.354,0
	c-0.078-3.669-3.82-5.797-6.837-6.946c-4.839-1.842-10.405-1.985-15.454-1.076c-3.664,0.66-8.277,2.201-10.189,5.694
	c-1.691,3.092,0.479,6.018,3.104,7.614c2.446,1.485,5.389,2.193,8.196,2.563c3.454,0.454,6.952,0.396,10.389-0.166
	c3.979-0.648,10.685-2.647,10.792-7.685C39.887,11.562,38.532,11.564,38.514,12.436"/>
<path fill="#FFDFB3" d="M39.19,8.567c0,4.345-7.104,7.868-15.864,7.868c-8.762,0-15.864-3.523-15.864-7.868
	s7.103-7.868,15.864-7.868C32.087,0.699,39.19,4.222,39.19,8.567"/>
<path fill="#5F3811" d="M38.514,8.567c-0.085,3.941-5.53,5.727-8.601,6.465c-5.158,1.241-10.939,0.997-15.932-0.825
	c-2.796-1.021-7.229-3.693-5.426-7.283c0.817-1.631,2.541-2.678,4.123-3.446c2.257-1.097,4.807-1.646,7.287-1.924
	c4.241-0.478,8.683-0.095,12.704,1.374C35.075,3.805,38.45,5.615,38.514,8.567c0.019,0.872,1.373,0.874,1.354,0
	c-0.078-3.669-3.82-5.797-6.837-6.945C28.191-0.22,22.625-0.364,17.576,0.544c-3.664,0.66-8.277,2.201-10.189,5.694
	C5.684,9.351,7.902,12.329,10.49,14c2.466,1.594,5.458,2.372,8.332,2.791c3.4,0.496,6.874,0.406,10.252-0.202
	c4.038-0.729,10.685-2.966,10.792-8.022C39.887,7.693,38.532,7.695,38.514,8.567"/>
<path fill="#FAF393" d="M28.522,8.641c0,0.902-0.732,1.636-1.636,1.636h-7.397c-0.904,0-1.636-0.732-1.636-1.636V5.974
	c0-0.903,0.731-1.636,1.636-1.636h7.397c0.902,0,1.636,0.731,1.636,1.636V8.641L28.522,8.641z"/>
<path fill="#5F3811" d="M29.227,8.568c0,1.277-1.035,2.313-2.313,2.313h-7.352c-1.277,0-2.313-1.035-2.313-2.313V5.846
	c0-1.277,1.036-2.313,2.313-2.313h7.352c1.277,0,2.313,1.036,2.313,2.313V8.568z M28.02,5.901c0-0.529-0.43-0.958-0.959-0.958
	h-7.443c-0.528,0-0.958,0.429-0.958,0.958v2.713c0,0.529,0.43,0.958,0.958,0.958h7.443c0.529,0,0.959-0.429,0.959-0.958V5.901
	L28.02,5.901z"/>
<path fill="#AFDD83" d="M5.778,18.39l-0.056,0.011c-0.727,0.131-1.208,0.826-1.077,1.552l0.04,0.221l-0.318-0.35
	c-0.497-0.546-1.342-0.585-1.887-0.089l-0.042,0.039c-0.545,0.497-0.585,1.342-0.088,1.887l0.379,0.416l-0.318-0.088
	c-0.71-0.198-1.446,0.217-1.646,0.927l-0.017,0.056c-0.197,0.711,0.218,1.447,0.929,1.646l4.105,1.146
	c0.607,0.17,1.233-0.11,1.526-0.641c0.554-0.241,0.891-0.839,0.778-1.46l-0.76-4.194C7.199,18.741,6.504,18.259,5.778,18.39"/>
<path fill="#5F3811" d="M5.599,17.737c-1.287,0.23-1.776,1.447-1.566,2.614c0.377-0.22,0.754-0.439,1.131-0.659
	c-0.881-0.967-2.125-1.378-3.205-0.398c-1.114,1.014-0.548,2.341,0.291,3.262c0.221-0.377,0.439-0.754,0.659-1.132
	c-1.254-0.35-2.31,0.066-2.797,1.313c-0.418,1.069,0.401,2.259,1.426,2.545c0.791,0.221,1.582,0.441,2.373,0.662
	c0.641,0.178,1.451,0.558,2.133,0.542c1.159-0.026,2.342-1.032,2.688-2.124c0.204-0.642-0.125-1.613-0.24-2.249
	c-0.302-1.672-0.302-4.588-2.716-4.397c-0.864,0.066-0.871,1.423,0,1.354c0.768-0.061,0.878,0.462,0.982,1.04
	c0.109,0.606,0.22,1.214,0.33,1.822c0.094,0.521,0.188,1.044,0.282,1.565c0.123,0.679-0.383,1.197-0.937,1.568
	c-0.289,0.193-0.899-0.075-1.184-0.154c-0.627-0.175-1.253-0.351-1.88-0.523c-0.475-0.134-0.949-0.267-1.425-0.398
	c-0.398-0.111-0.62-0.405-0.545-0.838c0.109-0.627,0.719-0.539,1.146-0.421c0.676,0.188,1.104-0.643,0.658-1.131
	c-0.361-0.398-0.774-0.807-0.291-1.347c0.468-0.521,0.982,0.063,1.289,0.398c0.495,0.543,1.243-0.042,1.132-0.659
	c-0.086-0.478,0.102-0.854,0.62-0.948C6.816,18.89,6.451,17.583,5.599,17.737"/>
<path fill="#F77F7F" d="M11.678,22.087c2.123,2.329,3.678,7.511,1.545,9.452c-2.133,1.943-7.146-0.087-9.27-2.418
	c-2.123-2.33-0.551-4.076,1.582-6.021C7.668,21.159,9.555,19.757,11.678,22.087"/>
<path fill="#5F3811" d="M11.198,22.566c1.526,1.732,2.465,4.251,2.353,6.562c-0.136,2.768-2.861,2.753-4.911,2.114
	c-1.938-0.604-6.004-2.728-4.742-5.28c0.642-1.298,2.035-2.351,3.124-3.258c0.562-0.469,1.185-0.88,1.889-1.092
	C9.829,21.334,10.6,21.947,11.198,22.566c0.609,0.629,1.565-0.33,0.958-0.957c-1.296-1.339-2.774-1.748-4.491-0.959
	c-0.875,0.403-1.641,1.11-2.354,1.743c-0.759,0.673-1.532,1.376-2.133,2.198c-1.095,1.495-1.173,3.089-0.047,4.597
	c0.985,1.319,2.516,2.255,3.997,2.916c2.557,1.142,6.239,1.597,7.497-1.531c0.565-1.406,0.272-3.135-0.113-4.542
	c-0.443-1.612-1.25-3.167-2.355-4.422C11.578,20.952,10.623,21.913,11.198,22.566"/>
<path fill="#FEFDF8" d="M7.224,26.177c0.351,0.385,0.372,0.938,0.045,1.233c-0.326,0.297-0.874,0.227-1.226-0.16
	c-0.351-0.385-0.37-0.938-0.045-1.233C6.324,25.72,6.873,25.791,7.224,26.177"/>
<path fill="#FEFDF8" d="M11.104,28.138c0.351,0.385,0.371,0.938,0.045,1.233c-0.326,0.297-0.874,0.227-1.225-0.158
	c-0.352-0.387-0.371-0.938-0.045-1.235C10.205,27.681,10.754,27.751,11.104,28.138"/>
<path fill="#FEFDF8" d="M10.605,24.143c0.351,0.385,0.372,0.938,0.045,1.234c-0.326,0.298-0.875,0.226-1.225-0.159
	c-0.352-0.386-0.371-0.938-0.045-1.234C9.706,23.687,10.255,23.758,10.605,24.143"/>
</svg>
