<?xml version="1.0" encoding="utf-8"?>
<!-- Generator: Adobe Illustrator 12.0.0, SVG Export Plug-In . SVG Version: 6.00 Build 51448)  -->
<!DOCTYPE svg PUBLIC "-//W3C//DTD SVG 1.1//EN" "http://www.w3.org/Graphics/SVG/1.1/DTD/svg11.dtd" [
	<!ENTITY ns_svg "http://www.w3.org/2000/svg">
	<!ENTITY ns_xlink "http://www.w3.org/1999/xlink">
]>
<svg  version="1.1" id="レイヤー_1" xmlns="&ns_svg;" xmlns:xlink="&ns_xlink;" width="226.93" height="202.955"
	 viewBox="0 0 226.93 202.955" overflow="visible" enable-background="new 0 0 226.93 202.955" xml:space="preserve">
<path fill="#A86560" d="M217.9,35.614c-9.146-17.763-25.218-30.986-45.068-34.592c-11.154-2.025-22.926-1.079-33.465,3.172
	c-10.232,4.127-17.533,11.122-24.104,19.637c-6.57-8.515-13.871-15.51-24.104-19.637C80.616-0.057,68.846-1.003,57.692,1.022
	c-7.553,1.372-14.557,4.14-20.842,8.017l162.229,134.346C223.882,113.328,236.795,72.307,217.9,35.614"/>
<path fill="#A86560" d="M9.968,41.291c-17.163,40.588,2.525,85.419,32.985,114.461"/>
<path fill="#A86560" d="M42.953,155.752c20.772,19.808,46.044,33.838,71.466,46.733c0.008,0.004,0.015,0.005,0.021,0.009
	c-0.011-0.005,0.819,0.461,0.819,0.461s0.831-0.466,0.818-0.461c0.009-0.004,0.016-0.005,0.021-0.009
	c17.834-9.047,35.587-18.661,51.771-30.428L9.968,41.291"/>
<polyline fill="#A86560" points="0,17.387 174.977,162.291 205.612,187.659 217.206,173.729 188.528,149.979 11.529,3.402 "/>
</svg>
