<?xml version="1.0" encoding="utf-8"?>
<!-- Generator: Adobe Illustrator 12.0.0, SVG Export Plug-In . SVG Version: 6.00 Build 51448)  -->
<!DOCTYPE svg PUBLIC "-//W3C//DTD SVG 1.1//EN" "http://www.w3.org/Graphics/SVG/1.1/DTD/svg11.dtd" [
	<!ENTITY ns_svg "http://www.w3.org/2000/svg">
	<!ENTITY ns_xlink "http://www.w3.org/1999/xlink">
]>
<svg  version="1.1" id="レイヤー_1" xmlns="&ns_svg;" xmlns:xlink="&ns_xlink;" width="39.721" height="17.238"
	 viewBox="0 0 39.721 17.238" overflow="visible" enable-background="new 0 0 39.721 17.238" xml:space="preserve">
<path fill="#5A3D1C" d="M37.562,8.619c1.07-1.849,1.775-4.193,2.148-7.153c0.047-0.37-0.066-0.743-0.313-1.021
	C39.149,0.162,38.792,0,38.417,0c-0.197,0-0.389,0.044-0.568,0.132c-3.446,1.678-6.483,4.016-9.026,6.95
	c-0.063,0.071-0.12,0.147-0.174,0.229h-1.748V3.02c0-0.721-0.587-1.308-1.308-1.308c-0.723,0-1.31,0.587-1.31,1.308v4.291h-2.854
	V1.308C21.429,0.587,20.843,0,20.122,0s-1.308,0.587-1.308,1.308v6.003H15.96V3.02c0-0.721-0.587-1.308-1.308-1.308
	c-0.721,0-1.308,0.587-1.308,1.308v4.291H10.49V1.873c0-0.799-0.651-1.448-1.451-1.448c-0.32,0-0.626,0.104-0.883,0.306L1.231,6.104
	C0.449,6.712,0,7.629,0,8.62c0,0.99,0.449,1.906,1.231,2.514l6.925,5.374c0.257,0.2,0.563,0.306,0.883,0.306
	c0.8,0,1.451-0.648,1.451-1.448V9.928h2.854v4.291c0,0.721,0.586,1.308,1.308,1.308s1.308-0.587,1.308-1.308V9.928h2.854v6.003
	c0,0.722,0.587,1.308,1.308,1.308s1.307-0.586,1.307-1.308V9.928h2.854v4.291c0,0.721,0.587,1.308,1.31,1.308
	c0.721,0,1.308-0.587,1.308-1.308V9.928h1.748c0.054,0.08,0.11,0.156,0.174,0.228c2.543,2.937,5.58,5.273,9.026,6.951
	c0.181,0.087,0.371,0.132,0.568,0.132c0.375,0,0.731-0.162,0.98-0.444c0.245-0.278,0.359-0.65,0.313-1.021
	C39.337,12.812,38.632,10.468,37.562,8.619z M5.995,5.004c-0.672,0-1.218,0.546-1.218,1.218c0,0.671,0.546,1.218,1.218,1.218
	c0.671,0,1.218-0.546,1.218-1.218C7.212,5.551,6.666,5.004,5.995,5.004z"/>
<g id="XMLID_251_">
	<g>
		<path fill="#9C98EA" d="M38.772,0.998c0.088,0.1,0.127,0.229,0.11,0.364c-0.381,3.012-1.107,5.346-2.225,7.137
			c-0.045,0.073-0.045,0.167,0,0.24c1.116,1.791,1.844,4.125,2.225,7.138c0.017,0.134-0.022,0.264-0.11,0.362
			c-0.093,0.104-0.22,0.163-0.354,0.163c-0.068,0-0.138-0.017-0.203-0.049c-3.344-1.628-6.291-3.896-8.76-6.747
			c-0.49-0.563-0.49-1.413,0-1.977c2.469-2.849,5.416-5.119,8.76-6.747c0.065-0.032,0.135-0.047,0.203-0.047
			C38.552,0.837,38.679,0.896,38.772,0.998z"/>
		<path fill="#9C98EA" d="M9.657,1.873v13.491c0,0.378-0.319,0.612-0.615,0.612c-0.132,0-0.261-0.044-0.371-0.129l-6.924-5.374
			C1.171,10.024,0.84,9.349,0.84,8.62c0-0.731,0.331-1.406,0.907-1.854l6.924-5.374C8.78,1.307,8.91,1.261,9.042,1.261
			C9.338,1.261,9.657,1.494,9.657,1.873z"/>
	</g>
</g>
<g id="XMLID_249_">
	<g>
		<path fill="#5A3D1C" d="M5.995,5.46c0.419,0,0.761,0.342,0.761,0.763c0,0.419-0.342,0.761-0.761,0.761
			c-0.421,0-0.762-0.342-0.762-0.761C5.233,5.802,5.574,5.46,5.995,5.46z"/>
	</g>
</g>
<g id="XMLID_245_">
	<g>
		<path fill="#D8D8D8" d="M26.52,8.146h2.171c-0.075,0.312-0.075,0.634,0,0.944H26.52V8.146z"/>
		<path fill="#D8D8D8" d="M26.064,3.02v11.198c0,0.26-0.211,0.472-0.471,0.472s-0.473-0.212-0.473-0.472V3.02
			c0-0.26,0.213-0.473,0.473-0.473S26.064,2.761,26.064,3.02z"/>
		<rect x="21.052" y="8.146" fill="#D8D8D8" width="3.611" height="0.944"/>
		<path fill="#D8D8D8" d="M20.595,1.308v14.623c0,0.26-0.213,0.473-0.472,0.473c-0.26,0-0.471-0.213-0.471-0.473V1.308
			c0-0.26,0.211-0.471,0.471-0.471C20.382,0.837,20.595,1.048,20.595,1.308z"/>
		<rect x="15.582" y="8.146" fill="#D8D8D8" width="3.614" height="0.944"/>
		<path fill="#D8D8D8" d="M15.126,3.02v11.198c0,0.26-0.211,0.472-0.471,0.472c-0.26,0-0.473-0.212-0.473-0.472V3.02
			c0-0.26,0.213-0.473,0.473-0.473C14.915,2.547,15.126,2.761,15.126,3.02z"/>
		<rect x="10.113" y="8.146" fill="#D8D8D8" width="3.613" height="0.944"/>
	</g>
</g>
</svg>
