<svg id="Layer_1" data-name="Layer 1" xmlns="http://www.w3.org/2000/svg" xmlns:xlink="http://www.w3.org/1999/xlink" viewBox="0 0 407.15 271.2"><defs><style>.cls-1{fill:none;}.cls-2{clip-path:url(#clip-path);}.cls-3{fill:#ae3721;}.cls-4{fill:#fff;opacity:0.15;}.cls-5{fill:#ffdec0;}</style><clipPath id="clip-path" transform="translate(-4.35 -3.9)"><rect class="cls-1" x="4.35" y="3.9" width="406.8" height="271.2" rx="10.5" ry="10.5"/></clipPath></defs><title>gift-card-50</title><g class="cls-2"><rect class="cls-3" width="406.8" height="271.2" rx="10.5" ry="10.5"/><path class="cls-4" d="M411.5,4H4.5V97c65.39,14.89,223.32,40.82,407-.59Z" transform="translate(-4.35 -3.9)"/></g><path class="cls-5" d="M105.23,222.78a5.78,5.78,0,0,1-2.62,4.72,9.68,9.68,0,0,1-6,2,8.33,8.33,0,0,1-5.41-1.66,4.58,4.58,0,0,1-2.05-3.44q0-1.78,1-1.78a2.45,2.45,0,0,1,1.62.78,22.33,22.33,0,0,0,1.89,1.55,3.9,3.9,0,0,0,2.38.78,5.67,5.67,0,0,0,3-1.1q1.68-1.1,1.68-1.84t-1.83-2.49q-1.83-1.75-3.65-3.6t-1.83-2.87a7.51,7.51,0,0,1,.37-2.21,3.43,3.43,0,0,1,.92-1.65,15.36,15.36,0,0,1,4.51-3,12.13,12.13,0,0,1,4.86-1.25,2.47,2.47,0,0,1,2,1.05,3.53,3.53,0,0,1,.81,2.18q0,.45-.73.73a15,15,0,0,1-2.1.56,18.4,18.4,0,0,0-2.8.84q-3.3,1.23-3.3,2.07,0,.39,1.13,1.41t2.47,2.13a13,13,0,0,1,2.47,2.81A5.93,5.93,0,0,1,105.23,222.78Z" transform="translate(-4.35 -3.9)"/><path class="cls-5" d="M120.08,221.71a8.62,8.62,0,0,1-4.41,1.26,17.62,17.62,0,0,1-3.72-.32,5.49,5.49,0,0,0-.29,1.75,2,2,0,0,0,.29,1.24q.29.37,1.45.37a16.51,16.51,0,0,0,4.15-.45c1.15-.3,1.75-.45,1.79-.45.88,0,1.33.29,1.33.87q0,1.26-2.08,2.39a9.94,9.94,0,0,1-4.82,1.13,5.8,5.8,0,0,1-4.38-1.71,5.65,5.65,0,0,1-1.65-4.06,10.33,10.33,0,0,1,1.37-4.9,14.39,14.39,0,0,1,3.44-4.28,6.46,6.46,0,0,1,4.12-1.73,5,5,0,0,1,3.8,2,6.2,6.2,0,0,1,1.75,4Q122.23,220.45,120.08,221.71Zm-2.28-4.3a2,2,0,0,0-1.28-.61,2.62,2.62,0,0,0-1.53.86,10.38,10.38,0,0,0-1.78,2.21,8.08,8.08,0,0,0,.84,0q4.43,0,4.43-1.55Q118.48,218,117.8,217.41Z" transform="translate(-4.35 -3.9)"/><path class="cls-5" d="M137.25,220.32a1.39,1.39,0,0,1,.58.94,8.14,8.14,0,0,1-.39,1.75,20.79,20.79,0,0,0-.52,2.05q-.13.73-.21,1.15t-.11.66c0,.16-.06.36-.11.6l-.13.57c0,.14-.08.3-.13.48a1.58,1.58,0,0,1-.18.42l-.23.31a.76.76,0,0,1-.65.26q-.45,0-1.11-.9a6.22,6.22,0,0,1-1-2.2q-3,3.1-5.11,3.1a4.58,4.58,0,0,1-3-1.54,4.34,4.34,0,0,1-1.62-3.07,11.11,11.11,0,0,1,1.39-4.38,19.84,19.84,0,0,1,3.8-5.27,6.89,6.89,0,0,1,4.77-2.42,5.08,5.08,0,0,1,3.13,1.58q1.78,1.58,1.78,2.89A6.33,6.33,0,0,1,137.25,220.32Zm-9.4,5.11q1.29,0,3.44-1.76a7.4,7.4,0,0,0,2.67-4.44q0-.39.55-.45-.1-1.84-.61-1.84a4.36,4.36,0,0,0-2.89,1.68,16.4,16.4,0,0,0-2.62,3.59,7,7,0,0,0-1,2.81.5.5,0,0,0,.08.34A.63.63,0,0,0,127.85,225.43Z" transform="translate(-4.35 -3.9)"/><path class="cls-5" d="M150.31,212.86a3.27,3.27,0,0,1,2.42,1.45,4.33,4.33,0,0,1,1.2,2.62q0,.78-.68.78a3.31,3.31,0,0,1-1.13-.31,3.88,3.88,0,0,0-1.5-.31,7.46,7.46,0,0,0-2.23.52q-1.47.52-1.47,1.36,0,.32.87.94t1.91,1.26A7.25,7.25,0,0,1,151.6,223a4,4,0,0,1,.87,2.49q0,1.34-2,2.7a7.85,7.85,0,0,1-4.59,1.36,8.2,8.2,0,0,1-4.51-1.2q-1.87-1.19-1.87-2.46t1-1.26a2.16,2.16,0,0,1,1,.32,7.91,7.91,0,0,0,4,.94q2.41,0,2.41-.65a2.12,2.12,0,0,0-.92-1.44,16.55,16.55,0,0,0-2-1.47,10,10,0,0,1-2-1.66,2.88,2.88,0,0,1-.92-1.92q0-1.74,3.17-3.8T150.31,212.86Z" transform="translate(-4.35 -3.9)"/><path class="cls-5" d="M157.43,216.41q2.5-3.62,5-3.62a5.54,5.54,0,0,1,4.14,1.73,5.77,5.77,0,0,1,1.68,4.17,11.79,11.79,0,0,1-1.16,5,11.29,11.29,0,0,1-3.26,4.18,7.1,7.1,0,0,1-4.49,1.66,3.86,3.86,0,0,1-3.07-1.58,5.88,5.88,0,0,1-1.29-3.85A13.24,13.24,0,0,1,157.43,216.41Zm5.25,6.66a9.27,9.27,0,0,0,1.29-4.43,5,5,0,0,0-.58-2.84,8.38,8.38,0,0,0-2.76,3.39,10,10,0,0,0-1.37,4.54,4.87,4.87,0,0,0,.39,2.47A6.79,6.79,0,0,0,162.69,223.07Z" transform="translate(-4.35 -3.9)"/><path class="cls-5" d="M181.72,212.82a3.8,3.8,0,0,1,3,1.5,4.89,4.89,0,0,1,1.28,3.22,20.13,20.13,0,0,1-.89,5.74,18.19,18.19,0,0,1-1.94,4.61q-1.05,1.61-2.13,1.61T179.91,228A20.91,20.91,0,0,1,181,223.3a18.08,18.08,0,0,0,.81-4.17q0-1.26-.32-1.26a1.16,1.16,0,0,0-.82.42q-.4.42-.66.74c-.17.22-.37.49-.6.82s-.42.64-.58.9l-.61,1-.6,1-.58,1.05q-3,5.62-4.72,5.62-.68,0-1.71-1.18a3.43,3.43,0,0,1-1-1.73,5.72,5.72,0,0,1,.47-1.54c.31-.79.54-1.39.68-1.81a11.47,11.47,0,0,0,.35-1.34q.15-.71.24-1.54t.15-1.28q0-.45.11-1.42A28.65,28.65,0,0,1,172,213q.21-.45.47-.45a3.5,3.5,0,0,1,2.36,1,2.75,2.75,0,0,1,1.13,1.86,23.54,23.54,0,0,1-1,5.75,62.54,62.54,0,0,1,3.83-6Q180.52,212.83,181.72,212.82Z" transform="translate(-4.35 -3.9)"/><path class="cls-5" d="M191.38,212.82a2.49,2.49,0,0,1,2,1.29,4.43,4.43,0,0,1,.89,2.49,29.84,29.84,0,0,1-1.12,4.41q-1.11,3.8-2.21,7.19a1.56,1.56,0,0,1-1.58,1.26,1.71,1.71,0,0,1-1.24-.53,1.88,1.88,0,0,1-.53-1.39,26.43,26.43,0,0,1,.82-4.27q.82-3.41,1.26-5.82a28.15,28.15,0,0,1,.81-3.52Q190.86,212.82,191.38,212.82Zm-.48-4a2.7,2.7,0,0,1,.76-1.73,2.07,2.07,0,0,1,1.49-.89q.73,0,1.73,1.75a6.15,6.15,0,0,1,1,2.54,1.47,1.47,0,0,1-.52,1.21,1.68,1.68,0,0,1-1.07.42,4.77,4.77,0,0,1-3.39-3.3Z" transform="translate(-4.35 -3.9)"/><path class="cls-5" d="M208,212.82a3.8,3.8,0,0,1,3,1.5,4.9,4.9,0,0,1,1.28,3.22,20.14,20.14,0,0,1-.89,5.74,18.16,18.16,0,0,1-1.94,4.61q-1.05,1.61-2.13,1.61T206.22,228a20.91,20.91,0,0,1,1.07-4.69,18.08,18.08,0,0,0,.81-4.17q0-1.26-.32-1.26a1.16,1.16,0,0,0-.82.42q-.4.42-.66.74c-.17.22-.37.49-.6.82s-.42.64-.58.9l-.61,1-.6,1-.58,1.05q-3,5.62-4.72,5.62-.68,0-1.71-1.18a3.43,3.43,0,0,1-1-1.73,5.72,5.72,0,0,1,.47-1.54c.31-.79.54-1.39.68-1.81a11.47,11.47,0,0,0,.35-1.34q.15-.71.24-1.54t.15-1.28q0-.45.11-1.42a28.65,28.65,0,0,1,.5-4.65q.21-.45.47-.45a3.5,3.5,0,0,1,2.36,1,2.75,2.75,0,0,1,1.13,1.86,23.54,23.54,0,0,1-1,5.75,62.54,62.54,0,0,1,3.83-6Q206.83,212.83,208,212.82Z" transform="translate(-4.35 -3.9)"/><path class="cls-5" d="M226.8,219.81a1.93,1.93,0,0,1,.49,1.32,4.07,4.07,0,0,1-.65,1.91,27.7,27.7,0,0,0-1.42,4.82,40.54,40.54,0,0,1-1.21,4.61,18.09,18.09,0,0,1-1.29,3,6,6,0,0,1-1.89,2,4.8,4.8,0,0,1-2.75.81,5.91,5.91,0,0,1-3.88-1.42q-1.71-1.42-1.71-2.44a3.24,3.24,0,0,1,.55-1.84q.55-.82,1-.82a1.21,1.21,0,0,1,.9.52,9.28,9.28,0,0,1,.81,1.11,4.74,4.74,0,0,0,1,1.11,2.07,2.07,0,0,0,1.36.52,1.69,1.69,0,0,0,1.36-1,8,8,0,0,0,.94-2.1,36.18,36.18,0,0,0,1-3.78,7.41,7.41,0,0,1-3.57,1.36,3.6,3.6,0,0,1-2.67-1.5,4.49,4.49,0,0,1-1.29-2.84,10.35,10.35,0,0,1,.73-3.36,25.93,25.93,0,0,1,1.87-4,12.43,12.43,0,0,1,2.91-3.47,5.57,5.57,0,0,1,3.54-1.45,3.34,3.34,0,0,1,3.26,2.2,10.81,10.81,0,0,1,.68,3.94A7.26,7.26,0,0,1,226.8,219.81Zm-9,5.2c0,.28.12.42.35.42q.94,0,3-1.71a9.28,9.28,0,0,0,2.81-3.39v-.61a4.91,4.91,0,0,0-.39-2.55.65.65,0,0,0-.52-.23q-1.55,0-3.42,3.26T217.85,225Z" transform="translate(-4.35 -3.9)"/><path class="cls-5" d="M257.34,222.78a5.78,5.78,0,0,1-2.62,4.72,9.69,9.69,0,0,1-6,2,8.33,8.33,0,0,1-5.41-1.66,4.58,4.58,0,0,1-2.05-3.44q0-1.78,1-1.78a2.44,2.44,0,0,1,1.61.78,22.78,22.78,0,0,0,1.89,1.55,3.9,3.9,0,0,0,2.38.78,5.67,5.67,0,0,0,3-1.1q1.68-1.1,1.68-1.84T251,220.26q-1.83-1.75-3.65-3.6t-1.82-2.87a7.48,7.48,0,0,1,.37-2.21,3.43,3.43,0,0,1,.92-1.65,15.37,15.37,0,0,1,4.51-3,12.13,12.13,0,0,1,4.86-1.25,2.47,2.47,0,0,1,2,1.05,3.53,3.53,0,0,1,.81,2.18q0,.45-.73.73a15,15,0,0,1-2.1.56,18.37,18.37,0,0,0-2.8.84q-3.3,1.23-3.3,2.07,0,.39,1.13,1.41t2.47,2.13a13,13,0,0,1,2.47,2.81A5.93,5.93,0,0,1,257.34,222.78Z" transform="translate(-4.35 -3.9)"/><path class="cls-5" d="M263.9,205.13q0-1.36,1.07-1.36.87,0,2,1.45a4.37,4.37,0,0,1,1.13,2.49,14.32,14.32,0,0,1-.42,2.91q-.42,1.88-.86,3.43t-1.31,4.41q-.87,2.86-1.2,4a32.15,32.15,0,0,1,4.44-6.95q2.34-2.68,3.93-2.68,1,0,2.3,1.76a5.57,5.57,0,0,1,1.29,3.17,23.44,23.44,0,0,1-.52,4.09A18.9,18.9,0,0,1,274,227q-1.29,2.49-2.65,2.49-1.07,0-1.07-1.52a16.41,16.41,0,0,1,.65-3.59,29.06,29.06,0,0,0,.94-4.52c0-.54-.09-.81-.26-.81q-1.87,0-5.49,6.24a26.89,26.89,0,0,1-2.05,3.17,2.2,2.2,0,0,1-1.57,1q-.74,0-1.79-1.2a3.39,3.39,0,0,1-1.05-1.86,10.21,10.21,0,0,1,.27-2q.27-1.29.84-3.69t1.87-8.68Q263.9,205.85,263.9,205.13Z" transform="translate(-4.35 -3.9)"/><path class="cls-5" d="M291.79,220.32a1.38,1.38,0,0,1,.58.94A8.16,8.16,0,0,1,292,223a20.91,20.91,0,0,0-.52,2.05c-.08.49-.16.87-.21,1.15s-.09.5-.11.66-.06.36-.11.6l-.13.57c0,.14-.08.3-.13.48a1.64,1.64,0,0,1-.18.42l-.23.31a.76.76,0,0,1-.65.26q-.46,0-1.12-.9a6.23,6.23,0,0,1-1-2.2q-3,3.1-5.11,3.1a4.58,4.58,0,0,1-3-1.54,4.34,4.34,0,0,1-1.62-3.07,11.11,11.11,0,0,1,1.39-4.38,19.84,19.84,0,0,1,3.8-5.27,6.88,6.88,0,0,1,4.77-2.42,5.08,5.08,0,0,1,3.14,1.58q1.78,1.58,1.78,2.89A6.32,6.32,0,0,1,291.79,220.32Zm-9.4,5.11q1.29,0,3.44-1.76a7.4,7.4,0,0,0,2.67-4.44c0-.26.2-.41.55-.45q-.1-1.84-.61-1.84a4.36,4.36,0,0,0-2.89,1.68,16.4,16.4,0,0,0-2.62,3.59,7,7,0,0,0-1,2.81.5.5,0,0,0,.08.34A.63.63,0,0,0,282.39,225.43Z" transform="translate(-4.35 -3.9)"/><path class="cls-5" d="M294.54,224.43a10.88,10.88,0,0,1,1.42-5,15.25,15.25,0,0,1,3.73-4.65,7.12,7.12,0,0,1,4.54-1.94,3.22,3.22,0,0,1,2.33,1.47,4.4,4.4,0,0,1,1.2,2.63q0,.84-.78.84a2.53,2.53,0,0,1-1.07-.35,3,3,0,0,0-1.39-.35,3.66,3.66,0,0,0-2,1.21,13.1,13.1,0,0,0-2.33,2.91,5.79,5.79,0,0,0-1,2.67,1.58,1.58,0,0,0,.37,1.26,3.48,3.48,0,0,0,1.81.29,12.33,12.33,0,0,0,2.62-.26,8.43,8.43,0,0,0,1.75-.53,2.37,2.37,0,0,1,1-.28q.9,0,.9.78,0,1.42-2.49,2.89a9.71,9.71,0,0,1-5,1.47,5.83,5.83,0,0,1-3.6-1.76Q294.54,226,294.54,224.43Z" transform="translate(-4.35 -3.9)"/><path class="cls-5" d="M313.35,229.5q-.74,0-1.86-1.2a3.33,3.33,0,0,1-1.11-1.91q0-.19,1.08-3.85t2.16-8.79a44.39,44.39,0,0,0,1.08-9q0-1,.9-1t2.05,1.41a4.07,4.07,0,0,1,1.28,2.63,33.25,33.25,0,0,1-1.28,6.72,52.08,52.08,0,0,1-2.54,7.79l1.15-1.47,1.18-1.5,1.11-1.42q.66-.84,1.11-1.37l1-1.2c.37-.44.68-.8,1-1.07s.54-.52.82-.76a2.18,2.18,0,0,1,1.2-.71,2.62,2.62,0,0,1,1.78,1.08,3.07,3.07,0,0,1,1,1.89q0,.32-1.37,1.49a37.7,37.7,0,0,0-2.75,2.59,4,4,0,0,0-1.37,2.54,4,4,0,0,0,.66,2.16,5.54,5.54,0,0,0,1.44,1.6q.78.55,1.44,1.11c.44.38.66.7.66,1q0,1.26-1.71,1.26-2,0-5.4-3.42l-.78-.78Q314.32,229.5,313.35,229.5Z" transform="translate(-4.35 -3.9)"/><path class="cls-5" d="M230.29,110a5.66,5.66,0,0,0-1.05-11.22h-.33C226.16,89.37,218,82.5,208.3,82.5s-17.86,6.87-20.61,16.34h-.35A5.66,5.66,0,0,0,185.93,110l.22.06.38.07-2.34,12.36c5.12-4.9,13-10.24,18.31-12.29q.67-.26,1.28-.45c-2.22,0-4.43,0-6.65-.1-2.55,0-5.1-.12-7.64-.19l-1.91-.07c-.3,0-.6,0-.9,0h-.06l-.33,0-.17,0h-.05l-.44-.09a4.23,4.23,0,0,1-2.82-2.52,4.19,4.19,0,0,0,2.9,2.16l.43.06h.62l.82,0,5.42-.08c2.31,0,27.33,0,34.33-.1h0a10.9,10.9,0,0,0,1.3-.1,11.17,11.17,0,0,0,1.32-.26,7,7,0,0,0,1.23-.43,4.85,4.85,0,0,0,2.31-2.58,4,4,0,0,0-.44-3.44,5,5,0,0,0-1.3-1.32,6.45,6.45,0,0,0-1.68-.87,5.85,5.85,0,0,1,3.28,2,4.18,4.18,0,0,1,.83,1.82c0,.17,0,.33.06.5s0,.17,0,.26v.26a4.43,4.43,0,0,1-.15,1,4.81,4.81,0,0,1-1,1.81,6.35,6.35,0,0,1-3,2l-.41.12a6.85,6.85,0,0,1-.9.16h-.07l-.56,0h-.69c-2.48.06-5,.07-7.44.11l-7.64,0-3.77,0q.6.18,1.27.42c5,1.82,11.55,6.48,18.76,11.15l-2.08-10.91,2.34-.23,10.41,54.93a6.78,6.78,0,0,1-2.37,6.63c-3.11,2.63-14.21,5.23-29.46,5.23-17,0-25.33-3.55-29.13-6.8a4.6,4.6,0,0,1-1.24-1.88,5.12,5.12,0,0,0,1,1c1.63,1.28,7.06,4,16.72,5.5-6.46-3.27-13-10.37-17.52-16,0,0-.42,2.11-.47,2.37s-1.08,5.4-1.08,5.4a6.28,6.28,0,0,0,.12,3c.64,5.23,14.92,9.42,32.43,9.42,15.67,0,28.74-3.35,31.79-7.81a4.84,4.84,0,0,0,.92-4.38ZM213.77,83.72a23,23,0,0,1,6.88,3.73,20.4,20.4,0,0,1,4.3,4.86q.9,1.35,1.66,2.79a27.51,27.51,0,0,1,1.36,3,.38.38,0,0,1-.21.49l-.14,0h0l-9.32-.09c-3.11,0-6.22-.09-9.32-.14l-6.53-.14-2.79-.07c-1.55,0-3.5,0-5.05,0s-3,.06-3.91-.36a5.3,5.3,0,0,1,2.86-.57c1.55,0,3.11,0,4.66-.05,3.11,0,25.9.74,26.77,0,.68-.6.16-1.23-.21-1.95s-.62-1.17-1-1.73c-.2-.34-.41-.68-.62-1-.34-.53-1.6-2.22-1.87-2.55a18.29,18.29,0,0,0-2.21-2.25,15,15,0,0,0-1.25-1c-.43-.29-.89-.57-1.35-.84A24.2,24.2,0,0,0,214,84.5a15.83,15.83,0,0,0-5.13-1.25,12.24,12.24,0,0,1,4.9.46Zm5.1,8.75c-.51.39-1.77-.41-2.81-1.78s-1.48-2.8-1-3.19,1.77.41,2.81,1.78,1.47,2.8,1,3.19Zm-11-5.61c.64,0,1.16,1.4,1.16,3.12s-.53,3.12-1.16,3.12-1.16-1.4-1.16-3.12.51-3.12,1.15-3.12Zm-8.82,3.65c-1.37,1.05-2.8,1.48-3.19,1s.41-1.77,1.78-2.81,2.8-1.48,3.19-1-.42,1.77-1.79,2.81Z" transform="translate(-4.35 -3.9)"/><path class="cls-5" d="M205,175.68c.36,0,.72,0,1.08,0,14.66.35,26.77-3.16,29.89-6.14,1.25-1.19,1.2-3.73.86-5.5l-.86-4.55c-7.71,5.9-21.39,13.62-30.71,16.16Z" transform="translate(-4.35 -3.9)"/><path class="cls-5" d="M229.15,123.79c-13.9-5.2-24.59-4.16-28.09-.12-3.66,4.22,18.73,12.7,32,20.59Z" transform="translate(-4.35 -3.9)"/><path class="cls-5" d="M178.23,153.93c5.46,5.08,15.33,11.52,22.83,11.92,10.67.56,24.33-9.75,23.41-15.68-.81-5.21-32.62-10-42.55-15.71C180.56,141.66,179.2,148.83,178.23,153.93Z" transform="translate(-4.35 -3.9)"/><path class="cls-5" d="M261.53,92l-44.19-34.1c-5.27-4.07-13.9-4.07-19.18,0L154,92c-5.95,4.59-1.51,12.18,7.11,12.18h9.64c3.27,0,6.08-1.7,6.68-4.06,3.73-14.59,15.9-25.29,30.34-25.29s26.61,10.7,30.34,25.29c.6,2.36,3.43,4.06,6.68,4.06h9.63C263,104.18,267.48,96.6,261.53,92Zm-2,9.49a3.73,3.73,0,0,0-.05-5.44,37.69,37.69,0,0,0-3.87-3.43c-8.79-7.33-18-14.21-27.1-21.11q-5.78-4.37-11.59-8.69c-1-.72-1.93-1.45-2.91-2.15-2.56-1.84-4-2.85-9.27-3.84-.5-.09,1.22-.48,1.45-.5a15,15,0,0,1,9.49,2.75c1.21.86,2.39,1.76,3.58,2.63q14,10.39,27.71,21.06c4,3.13,8,6.27,11.91,9.59a19.18,19.18,0,0,1,2.8,2.63C263.29,97.08,262.65,99.77,259.55,101.49Z" transform="translate(-4.35 -3.9)"/><path class="cls-5" d="M333.88,50a15.56,15.56,0,0,1-3.93-1.19,11.71,11.71,0,0,1-3.17-2.05l1.72-2.49a1.75,1.75,0,0,1,.58-.51,1.57,1.57,0,0,1,.78-.21,1.94,1.94,0,0,1,.88.22q.45.22,1,.55c.35.22.74.43,1.16.65a6.9,6.9,0,0,0,1.43.55l.66-6.78q-1.29-.36-2.56-.85a8.32,8.32,0,0,1-2.3-1.31,6.24,6.24,0,0,1-1.66-2.1,7.15,7.15,0,0,1-.64-3.2,7,7,0,0,1,.57-2.77A7.44,7.44,0,0,1,330.07,26a8.79,8.79,0,0,1,2.71-1.77,9.29,9.29,0,0,1,3.69-.69l.2-2a1.54,1.54,0,0,1,.45-.92,1.35,1.35,0,0,1,1-.41h2l-.36,3.53a10.59,10.59,0,0,1,3.33,1.16,12.35,12.35,0,0,1,2.37,1.71l-1.36,2a2.32,2.32,0,0,1-.62.65,1.32,1.32,0,0,1-.74.21,2,2,0,0,1-.65-.13q-.36-.13-.79-.31l-.92-.4a8.73,8.73,0,0,0-1-.38l-.63,6.36q.86.25,1.72.55a14.86,14.86,0,0,1,1.66.68,9.65,9.65,0,0,1,1.49.89,5.63,5.63,0,0,1,1.2,1.18,5.33,5.33,0,0,1,.8,1.57,6.54,6.54,0,0,1,.29,2,8.86,8.86,0,0,1-.57,3.2,7.76,7.76,0,0,1-1.68,2.64,8.74,8.74,0,0,1-2.73,1.87,11,11,0,0,1-3.69.89L337,52.35a1.49,1.49,0,0,1-.45.9,1.36,1.36,0,0,1-1,.4h-2Zm-.82-19.23a2.28,2.28,0,0,0,.67,1.71,5.48,5.48,0,0,0,1.77,1.1l.54-5.41a5.75,5.75,0,0,0-1.39.37,3,3,0,0,0-.91.58,2.12,2.12,0,0,0-.51.76A2.48,2.48,0,0,0,333.06,30.73Zm7.6,11.6A2.12,2.12,0,0,0,340,40.7a5.29,5.29,0,0,0-1.73-1l-.57,5.92Q340.66,45.07,340.66,42.33Z" transform="translate(-4.35 -3.9)"/><path class="cls-5" d="M364.86,26.05a2.91,2.91,0,0,1-.18,1,2.12,2.12,0,0,1-.56.82,2.59,2.59,0,0,1-1,.54,5.28,5.28,0,0,1-1.51.19h-6.24L354.62,33q.73-.13,1.42-.19t1.33-.06a9.8,9.8,0,0,1,3.64.63A7.68,7.68,0,0,1,363.65,35a7.1,7.1,0,0,1,1.62,2.55,8.86,8.86,0,0,1,.55,3.13,9.61,9.61,0,0,1-.74,3.83,8.89,8.89,0,0,1-2.07,3,9.3,9.3,0,0,1-3.16,1.94,11.35,11.35,0,0,1-4,.69,10.69,10.69,0,0,1-2.43-.27,11.65,11.65,0,0,1-4-1.78,12.41,12.41,0,0,1-1.56-1.28l1.72-2.29a1.85,1.85,0,0,1,.63-.55,1.63,1.63,0,0,1,.77-.19,1.88,1.88,0,0,1,1,.3l1,.64a7.66,7.66,0,0,0,1.32.64,5.25,5.25,0,0,0,1.86.29,4.48,4.48,0,0,0,1.9-.37,3.42,3.42,0,0,0,1.28-1,4.09,4.09,0,0,0,.72-1.49,7.14,7.14,0,0,0,.22-1.82,3.75,3.75,0,0,0-1.08-2.89,4.32,4.32,0,0,0-3-1,9.32,9.32,0,0,0-3.44.66l-3.44-.93,2.22-13.07h13.37Z" transform="translate(-4.35 -3.9)"/><path class="cls-5" d="M387.83,36.81a21.19,21.19,0,0,1-.74,5.93,12.16,12.16,0,0,1-2,4.16A8.21,8.21,0,0,1,382,49.36a9.28,9.28,0,0,1-3.86.81,9.15,9.15,0,0,1-3.84-.81,8.17,8.17,0,0,1-3.06-2.46,12.15,12.15,0,0,1-2-4.16,21.42,21.42,0,0,1-.73-5.93,21.44,21.44,0,0,1,.73-5.93,12.15,12.15,0,0,1,2-4.16,8.1,8.1,0,0,1,3.06-2.45,9.23,9.23,0,0,1,3.84-.8,9.36,9.36,0,0,1,3.86.8,8.14,8.14,0,0,1,3.08,2.45,12.17,12.17,0,0,1,2,4.16A21.21,21.21,0,0,1,387.83,36.81Zm-5.74,0a23.76,23.76,0,0,0-.34-4.44,9.11,9.11,0,0,0-.9-2.72,3.29,3.29,0,0,0-1.28-1.35,3.16,3.16,0,0,0-1.45-.37,3.1,3.1,0,0,0-1.44.37,3.2,3.2,0,0,0-1.25,1.35,9.27,9.27,0,0,0-.88,2.72,24.35,24.35,0,0,0-.33,4.44,24.31,24.31,0,0,0,.33,4.45,9.4,9.4,0,0,0,.88,2.72,3.19,3.19,0,0,0,1.25,1.36,3.1,3.1,0,0,0,1.44.37,3.16,3.16,0,0,0,1.45-.37A3.28,3.28,0,0,0,380.85,44a9.23,9.23,0,0,0,.9-2.72A23.72,23.72,0,0,0,382.1,36.81Z" transform="translate(-4.35 -3.9)"/></svg>